<mxfile host="app.diagrams.net" modified="2023-10-16T14:14:43.215Z" agent="Mozilla/5.0 (Windows NT 10.0; Win64; x64) AppleWebKit/537.36 (KHTML, like Gecko) Chrome/117.0.0.0 Safari/537.36" etag="GdRj7AMzpUtVcW1nVhfN" version="22.0.4" type="device">
  <diagram id="R2lEEEUBdFMjLlhIrx00" name="Page-1">
    <mxGraphModel dx="1195" dy="625" grid="1" gridSize="10" guides="1" tooltips="1" connect="1" arrows="1" fold="1" page="1" pageScale="1" pageWidth="850" pageHeight="1100" math="0" shadow="0" extFonts="Permanent Marker^https://fonts.googleapis.com/css?family=Permanent+Marker">
      <root>
        <mxCell id="0" />
        <mxCell id="1" parent="0" />
        <mxCell id="p2d1YtB3JZNKJgh4M0qb-5" style="edgeStyle=orthogonalEdgeStyle;rounded=0;orthogonalLoop=1;jettySize=auto;html=1;entryX=0.5;entryY=0;entryDx=0;entryDy=0;" edge="1" parent="1" source="p2d1YtB3JZNKJgh4M0qb-1" target="p2d1YtB3JZNKJgh4M0qb-2">
          <mxGeometry relative="1" as="geometry" />
        </mxCell>
        <mxCell id="p2d1YtB3JZNKJgh4M0qb-6" style="edgeStyle=orthogonalEdgeStyle;rounded=0;orthogonalLoop=1;jettySize=auto;html=1;entryX=0;entryY=0.5;entryDx=0;entryDy=0;exitX=0.5;exitY=0;exitDx=0;exitDy=0;" edge="1" parent="1" source="p2d1YtB3JZNKJgh4M0qb-1" target="p2d1YtB3JZNKJgh4M0qb-7">
          <mxGeometry relative="1" as="geometry">
            <mxPoint x="310" y="90" as="targetPoint" />
            <Array as="points">
              <mxPoint x="410" y="90" />
            </Array>
          </mxGeometry>
        </mxCell>
        <mxCell id="p2d1YtB3JZNKJgh4M0qb-1" value="SupportTeam" style="whiteSpace=wrap;html=1;align=center;" vertex="1" parent="1">
          <mxGeometry x="340" y="70" width="100" height="40" as="geometry" />
        </mxCell>
        <mxCell id="p2d1YtB3JZNKJgh4M0qb-10" style="edgeStyle=orthogonalEdgeStyle;rounded=0;orthogonalLoop=1;jettySize=auto;html=1;entryX=0;entryY=0.5;entryDx=0;entryDy=0;" edge="1" parent="1" source="p2d1YtB3JZNKJgh4M0qb-2" target="p2d1YtB3JZNKJgh4M0qb-3">
          <mxGeometry relative="1" as="geometry" />
        </mxCell>
        <mxCell id="p2d1YtB3JZNKJgh4M0qb-2" value="Support" style="whiteSpace=wrap;html=1;align=center;" vertex="1" parent="1">
          <mxGeometry x="340" y="210" width="100" height="40" as="geometry" />
        </mxCell>
        <mxCell id="p2d1YtB3JZNKJgh4M0qb-3" value="Ticket" style="whiteSpace=wrap;html=1;align=center;" vertex="1" parent="1">
          <mxGeometry x="545" y="210" width="100" height="40" as="geometry" />
        </mxCell>
        <mxCell id="p2d1YtB3JZNKJgh4M0qb-9" style="edgeStyle=orthogonalEdgeStyle;rounded=0;orthogonalLoop=1;jettySize=auto;html=1;entryX=0.5;entryY=0;entryDx=0;entryDy=0;" edge="1" parent="1" source="p2d1YtB3JZNKJgh4M0qb-7" target="p2d1YtB3JZNKJgh4M0qb-3">
          <mxGeometry relative="1" as="geometry">
            <Array as="points">
              <mxPoint x="595" y="180" />
            </Array>
          </mxGeometry>
        </mxCell>
        <mxCell id="p2d1YtB3JZNKJgh4M0qb-7" value="TicketType" style="whiteSpace=wrap;html=1;align=center;" vertex="1" parent="1">
          <mxGeometry x="540" y="70" width="110" height="40" as="geometry" />
        </mxCell>
      </root>
    </mxGraphModel>
  </diagram>
</mxfile>
